<svg width="107" height="81" viewBox="0 0 107 81" fill="none" xmlns="http://www.w3.org/2000/svg">
<path fill-rule="evenodd" clip-rule="evenodd" d="M70.303 46.1568C70.3686 46.1549 70.4183 46.1535 70.4633 46.1416C70.5048 46.1308 70.5423 46.1111 70.5845 46.0738C70.6354 46.029 70.6933 45.959 70.7736 45.8488C69.4638 47.753 67.928 49.6678 66.1108 51.6996C58.9903 59.6488 50.0897 62.3062 46.592 62.3664C43.4553 62.422 39.6544 61.1627 37.0918 59.7599C34.5293 58.3594 30.2514 54.3686 30.2514 54.3686L21.3833 58.1719C21.3833 58.1719 23.6703 55.9797 26.2282 53.0005C28.2399 50.6636 26.4141 48.4722 24.3682 46.0164C23.8079 45.3439 23.231 44.6516 22.712 43.931C22.4678 43.5917 22.2052 43.2328 21.9284 42.8545L21.9282 42.8543C19.4698 39.4951 15.8855 34.5974 14.0776 28.1645C12.0683 21.007 13.6216 15.0301 16.8832 10.287C20.9196 4.42028 27.7157 2.53061 30.1545 1.85252C30.3745 1.79135 30.559 1.74004 30.7028 1.69656C32.4436 1.17109 38.5247 -0.134487 44.7794 0.0113482C54.3768 0.238203 66.3029 3.68965 72.0044 9.88186C71.8979 9.78233 71.8284 9.71288 71.8284 9.71288C71.6937 9.68508 71.5617 9.65764 71.4327 9.63079C69.724 9.27535 68.5188 9.02466 67.914 9.44436C67.8819 9.46677 67.8496 9.48901 67.8174 9.51117L67.8167 9.51166C67.1981 9.93784 66.6289 10.33 68.1687 11.1967C69.789 12.1087 73.3817 11.8587 73.3817 11.8587C73.3817 11.8587 73.3817 11.8587 73.3817 11.8586C73.7186 12.5123 74.0464 13.2671 74.3511 14.0795C73.4441 14.1263 72.891 14.2019 72.3413 14.372C71.8572 14.5209 71.3757 14.743 70.6571 15.0833C69.5878 15.5916 68.531 17.5008 68.0997 18.9382C67.9455 19.4519 67.8712 19.9053 67.9048 20.213C67.955 20.6649 67.8583 23.7462 67.7317 27.4538C67.7104 28.0766 67.6883 28.7171 67.6658 29.3658L67.6658 29.366L67.6658 29.3665L67.6658 29.367C67.477 34.827 67.2681 40.866 67.3695 41.823C67.6473 44.3809 69.432 46.2351 70.0848 46.1703C70.175 46.1605 70.2452 46.1585 70.303 46.1568ZM73.3794 11.8541C73.3803 11.8551 73.3809 11.856 73.3812 11.8568L73.3794 11.8541ZM73.3812 11.8568C73.3816 11.8577 73.3817 11.8583 73.3817 11.8586L73.3812 11.8568ZM59.1471 9.32925C59.9364 8.52137 60.0059 7.27367 56.7188 6.6394C52.4433 5.81994 46.4987 5.44262 40.825 6.19726C38.7162 6.47736 36.8389 7.23663 36.4546 8.16952C35.9523 9.3987 36.4893 10.6927 38.2509 10.8733C40.4269 11.1001 41.0056 11.1996 42.2487 11.5422C44.4894 12.1557 45.5057 13.8687 46.1561 17.8872C46.9248 22.6249 47.5789 38.1175 47.744 42.0291L47.7511 42.1955C47.8413 44.2858 48.1515 47.758 48.3992 48.8831C49.0751 51.9549 50.258 52.1331 50.9224 50.2419C51.5821 48.3622 51.434 39.1769 51.2858 34.3111C51.2064 31.7009 51.2301 28.1824 51.2524 24.8722V24.872V24.8719V24.8717V24.8715V24.8714C51.2717 22.0083 51.29 19.3012 51.2395 17.4729C51.1493 14.0978 51.9594 11.9636 53.8183 10.8455C54.7263 10.2993 55.7872 10.1802 56.7526 10.0718C57.7388 9.96105 58.6253 9.86152 59.1471 9.32925ZM65.2397 12.5483C63.36 11.9603 62.7072 13.4511 62.3137 15.2682C61.9202 17.0831 61.3878 22.7892 61.5776 25.3841C61.7651 27.9814 61.7605 30.5763 59.8762 30.4421C58.2115 30.3251 58.2304 29.5055 58.3077 26.1564L58.3077 26.156L58.3077 26.1554L58.3078 26.1545L58.3078 26.1531L58.3078 26.1522C58.3176 25.7255 58.3284 25.2578 58.3368 24.7452C58.3541 23.6148 58.4816 22.1766 58.6155 20.6658C59.001 16.3166 59.4398 11.366 57.4572 11.4279C56.5821 11.458 55.8067 12.2103 55.434 13.1363C55.1747 13.7844 54.3969 16.0275 54.7094 21.2822C54.9386 25.1394 54.8167 29.9353 54.7327 33.2411C54.7021 34.4429 54.6766 35.4477 54.6747 36.1389C54.6715 37.962 54.5014 42.2828 54.3764 45.4577L54.3764 45.4586L54.3762 45.4641C54.3234 46.8054 54.2787 47.9416 54.258 48.5974C54.1886 50.8011 54.6493 55.4586 56.7164 51.1299C57.3439 49.8179 57.5456 47.8963 57.7833 45.6326L57.7833 45.6325C57.8744 44.7648 57.9707 43.8468 58.0984 42.8936C58.2776 41.5574 58.3678 40.5644 58.4421 39.7466L58.4421 39.7466L58.4421 39.7461L58.4421 39.7459V39.7459C58.5588 38.4618 58.6362 37.6099 58.9572 36.5394C59.4803 34.7893 60.9063 32.9375 61.3577 35.7014C61.5057 36.5987 61.2451 38.9676 61.0042 41.1579L61.0041 41.158C60.8268 42.7703 60.6601 44.2858 60.6748 45.0464C60.735 48.2803 60.9642 52.0743 61.6077 52.8058C63.448 54.8984 64.0452 52.1854 64.3091 50.9539C64.5707 49.7224 64.9735 43.5603 65.0429 41.6135C65.0885 40.3361 65.6553 30.9489 66.0776 23.9546L66.0778 23.9526L66.0779 23.9497C66.2991 20.2868 66.4806 17.2812 66.5267 16.4419C66.5363 16.2663 66.5552 16.0737 66.5751 15.8706L66.5751 15.8704C66.6948 14.6491 66.8513 13.0524 65.2397 12.5483ZM31.6604 24.1256C32.4936 17.1434 34.1294 15.4632 34.8601 14.7126C34.9516 14.6186 35.0289 14.5392 35.0887 14.4658C37.5841 11.3986 41.7346 14.1649 43.0634 22.1881C44.3898 30.2137 45.5032 40.524 45.406 42.7903C45.3111 45.0634 44.5379 50.376 42.0541 44.4986C41.4382 43.038 40.7819 39.4611 40.3594 37.158L40.3592 37.157C40.2561 36.5953 40.167 36.1093 40.0957 35.7485C40.012 35.3225 39.9574 34.7778 39.8984 34.189V34.1889C39.68 32.0098 39.4012 29.2271 37.3619 29.628C36.0308 29.885 35.297 32.6952 34.4174 37.1467C34.1278 38.6089 33.9019 39.6914 33.7237 40.5452L33.7237 40.5453L33.7237 40.5453L33.7237 40.5453L33.7237 40.5454C33.3591 42.2919 33.1944 43.0813 33.0933 44.2069C32.9428 45.8783 32.7391 47.7811 31.415 47.3713C30.0979 46.9616 30.0609 42.2972 30.2761 37.2207C30.4222 33.8161 30.5802 32.6077 30.9658 29.6584C31.1426 28.3064 31.3672 26.5886 31.6604 24.1256ZM39.635 24.5081C39.3989 25.1285 35.0562 27.0915 35.7761 23.5313C35.7999 23.4145 35.8274 23.2627 35.8593 23.0869C36.1251 21.6206 36.6941 18.4812 37.9405 20.0335C39.3387 21.772 39.8294 24.0058 39.635 24.5081ZM30.5923 18.5042C30.3585 16.3352 27.5113 13.6407 26.6015 13.2681C20.0899 10.5944 15.2032 17.5644 15.0527 17.9603C14.6662 18.9672 14.6916 19.6269 15.0296 21.2473C15.6986 24.4372 20.3561 36.9258 23.8538 43.0601C27.3839 49.2524 26.2913 40.7198 25.2751 35.442C24.6061 31.9674 24.0459 28.0576 24.0459 28.0576C24.0459 28.0576 25.8376 27.127 28.5414 25.1942C31.1354 23.3413 30.8599 20.8886 30.6226 18.776L30.6225 18.7751C30.6123 18.6841 30.6022 18.5938 30.5923 18.5042ZM24.0124 18.3311C23.0656 17.5672 21.7577 17.4537 21.2276 18.4144L21.1755 18.5075C20.6501 19.4442 20.0495 20.5147 22.0031 23.5279C22.4869 24.271 25.1536 22.8057 25.1999 21.4468C25.2392 20.3172 24.7878 18.9538 24.0124 18.3311ZM106.02 16.9029C106.051 16.9774 106.079 17.0459 106.106 17.1078C107.455 20.3046 107.133 26.0871 106.087 29.0825C105.872 29.6959 104.207 34.3557 103.041 36.4506C102.809 36.8679 102.595 37.2811 102.373 37.7082C101.443 39.5013 100.385 41.5393 97.3995 45.1475C93.7073 49.6106 89.7836 48.3374 87.9016 46.9184C86.2532 45.678 86.0344 41.5571 85.7901 36.9553C85.7558 36.3098 85.721 35.6548 85.6817 34.9969C85.4288 30.7009 84.6992 30.3748 83.9084 30.0213C83.7149 29.9347 83.5177 29.8466 83.3229 29.6982C82.3321 28.9413 77.5589 26.932 77.5589 26.932C76.7719 32.4853 75.626 36.821 73.7024 40.828C73.9154 39.7371 73.1133 39.2998 72.3964 38.9088C72.2173 38.8111 72.0435 38.7164 71.8922 38.615C71.7974 38.5515 71.7063 38.4938 71.6188 38.4384C70.8107 37.9271 70.3136 37.6125 70.1445 34.6821C69.9569 31.439 70.9986 30.7283 71.7093 30.4714C71.8805 30.4094 72.1039 30.3633 72.3643 30.3097C73.1922 30.1392 74.3943 29.8917 75.4825 28.807C76.9131 27.3857 74.9663 26.1449 72.9593 25.3648C71.2933 24.7161 71.3683 24.1724 71.6313 22.2676C71.6855 21.8752 71.7477 21.4249 71.8042 20.9041C72.1213 17.9874 75.3644 19.0129 75.9316 19.2166C76.9177 23.0384 77.5057 26.5223 77.5057 26.5223L83.2511 26.4875C83.2511 26.4875 83.8206 25.8903 84.6632 24.4111C85.5035 22.9319 89.1563 16.617 91.7235 13.9318C94.2929 11.2443 98.9458 10.5544 101.902 12.1424C104.664 13.6232 105.586 15.8527 106.02 16.9029ZM100.773 15.0547C98.0142 13.9945 96.741 14.3209 95.4933 15.6936C94.7664 16.4945 93.146 21.5038 92.6715 24.9321C92.4331 26.6659 92.2108 35.9693 92.2108 35.9693C92.2108 35.9693 92.1344 41.8467 94.3335 38.8582C95.3127 37.5226 97.7526 32.7447 98.7017 30.4276C98.9608 29.7993 99.3475 28.9523 99.7759 28.0141L99.7759 28.0141C100.924 25.4992 102.372 22.3294 102.461 20.9622C102.482 20.6519 102.525 20.3118 102.57 19.9554C102.799 18.1553 103.081 15.9396 100.773 15.0547ZM89.8989 42.5994C88.6674 44.7823 89.7484 45.7198 91.2392 46.4351C92.7299 47.1527 93.5586 46.2407 94.0471 45.5022C94.5448 44.7546 94.76 44.4282 94.6975 43.0022C94.635 41.574 91.2808 40.148 89.8989 42.5994ZM19.7472 58.6856C19.7078 58.5352 19.6268 58.4518 19.4833 58.3361C19.3397 58.225 19.2495 58.2273 19.2495 58.2273L19.2124 58.1902C19.2368 58.1612 19.2332 58.1438 19.2286 58.1212C19.224 58.0986 19.2183 58.0709 19.2379 58.0213C19.2749 57.9217 19.2379 57.9055 19.2379 57.9055C19.2379 57.9055 19.136 57.9032 19.1522 57.806C19.158 57.7666 19.1689 57.7372 19.1784 57.7116C19.1919 57.6756 19.2024 57.6471 19.1916 57.6092C19.1821 57.5806 19.1638 57.5796 19.1439 57.5786C19.1204 57.5773 19.0945 57.5759 19.0782 57.5282C19.0388 57.3962 18.9948 57.424 18.9948 57.424L18.9254 57.4009C18.842 57.3083 18.7217 57.3106 18.7217 57.3106L18.6036 57.2226C18.5687 57.12 18.5466 57.0114 18.5285 56.9228C18.5058 56.8115 18.4895 56.7316 18.4624 56.7342C18.4354 56.7368 18.4341 56.7694 18.4324 56.8141C18.4309 56.8499 18.4292 56.8934 18.4138 56.9356C18.3791 57.0282 18.3444 56.9819 18.3444 56.9819C18.224 56.6977 18.1121 56.6393 18.0435 56.6035C18.0171 56.5897 17.9971 56.5792 17.9856 56.5606C17.9633 56.5278 17.9452 56.5205 17.9205 56.5105C17.8963 56.5007 17.8658 56.4884 17.8189 56.4472C17.724 56.3661 17.6592 56.4564 17.7772 56.5328C17.8648 56.5901 17.8972 56.6927 17.9209 56.7675C17.9297 56.7955 17.9374 56.8197 17.9462 56.8361C17.9763 56.8986 17.9231 56.9356 17.8675 56.8962C17.8399 56.8753 17.8328 56.8444 17.8235 56.8034C17.8132 56.7585 17.8001 56.7014 17.7541 56.6323C17.6638 56.4958 17.3629 56.2018 17.3443 56.2898C17.3326 56.3354 17.3552 56.368 17.3929 56.4225C17.4299 56.4759 17.4814 56.5503 17.5295 56.6786C17.6168 56.9213 17.5475 56.9271 17.5124 56.9301C17.5093 56.9304 17.5065 56.9306 17.5041 56.931C17.4763 56.9333 17.4277 56.9032 17.3142 56.7435C17.2031 56.5837 17.1152 56.5606 17.1152 56.5606C17.0697 56.4758 17.0038 56.4335 16.9193 56.3792L16.8883 56.3592C16.848 56.3333 16.8205 56.301 16.7989 56.2758C16.7683 56.24 16.7497 56.2183 16.724 56.2481C16.6754 56.2944 16.7147 56.3939 16.8513 56.5305C16.9565 56.6375 16.9642 56.6566 16.9897 56.72C16.9973 56.7389 17.0065 56.7618 17.0203 56.7921C17.0781 56.9263 17.0619 56.9541 16.974 56.9611C16.9003 56.9649 16.76 56.8064 16.6674 56.7017C16.6554 56.6882 16.6443 56.6756 16.6341 56.6643C16.6291 56.6587 16.6243 56.6534 16.6198 56.6486C16.5609 56.5863 16.4922 56.5289 16.4262 56.4738L16.4262 56.4738C16.4014 56.453 16.377 56.4327 16.3536 56.4124C16.2656 56.343 16.2471 56.424 16.2957 56.5189C16.3397 56.6092 16.4809 56.8129 16.5735 56.9356C16.6661 57.0606 16.5642 57.0999 16.4855 57.0953C16.4115 57.0907 16.3304 57.0282 16.3304 57.0282C16.2227 56.967 16.1661 56.9387 16.1226 56.9169L16.1225 56.9168C16.0903 56.9007 16.0652 56.8881 16.0318 56.8685C16.002 56.8509 15.967 56.8232 15.9335 56.7966C15.8785 56.753 15.8277 56.7129 15.8119 56.7273L15.8105 56.7285C15.7848 56.7518 15.742 56.7905 15.8443 56.9564C15.9485 57.1277 15.8374 57.1208 15.8374 57.1208C15.6638 57.0583 15.5017 57.1486 15.5388 57.2874C15.5758 57.424 15.6753 57.5259 15.6753 57.5259C15.6753 57.5259 15.6661 57.5351 15.6476 57.6069C15.629 57.681 15.717 57.7412 15.717 57.7412C15.7193 57.8176 15.7679 57.9634 15.8952 57.9657C16.0188 57.9669 16.0204 57.98 16.0227 58.0005C16.0248 58.0183 16.0276 58.0417 16.1128 58.0676C16.2957 58.1254 16.5851 58.1277 16.5851 58.1277C16.6036 58.1717 16.5527 58.2088 16.5527 58.2088C16.5527 58.2088 15.9091 58.4449 15.0179 59.4773C15.0009 59.4955 14.9788 59.5456 14.957 59.5951L14.9569 59.5951C14.9372 59.64 14.9176 59.6844 14.9022 59.7042C14.7633 59.8755 14.6522 60.0259 14.5202 60.2296C14.4927 60.2743 14.4544 60.3242 14.4163 60.3737L14.4163 60.3738C14.3774 60.4243 14.3388 60.4746 14.3119 60.519C14.2488 60.6274 14.1864 60.7262 14.1257 60.8223L14.1257 60.8224C14.0283 60.9767 13.9354 61.1239 13.8512 61.2921C13.8449 61.306 13.838 61.3222 13.8307 61.3398C13.8252 61.3529 13.8196 61.3669 13.8137 61.3812C13.784 61.4537 13.7501 61.5364 13.7216 61.5792C13.386 62.1 13.2008 62.306 13.2008 62.306C13.2008 62.306 12.9785 62.6185 12.0017 63.0283C11.7887 63.1186 11.6568 63.1625 11.3836 63.225C11.0503 63.2991 10.7563 63.3778 10.4577 63.4727C10.3846 63.4962 10.3139 63.518 10.2428 63.5398C9.99868 63.6149 9.74897 63.6918 9.37432 63.8477C9.21672 63.9162 9.02532 64.0163 8.81929 64.124C8.60771 64.2347 8.38069 64.3534 8.15902 64.4542C8.15902 64.4542 8.14513 64.3778 8.08263 64.2551C8.06643 64.2297 8.04097 64.1741 8.02939 64.1463C8.01947 64.1302 8.00888 64.1187 7.99798 64.1069C7.98854 64.0967 7.97888 64.0862 7.96921 64.0723C7.96139 64.0596 7.95563 64.0464 7.94984 64.0332C7.94193 64.0152 7.93397 63.9971 7.92059 63.9797C7.90469 63.9571 7.88349 63.9354 7.86174 63.9131L7.86171 63.913C7.84547 63.8964 7.82895 63.8794 7.81411 63.8616L7.79692 63.842C7.68601 63.7153 7.58532 63.6003 7.36735 63.5607C7.34179 63.5536 7.31972 63.5439 7.29899 63.5348C7.28592 63.529 7.27339 63.5235 7.26086 63.519C7.24843 63.5175 7.22661 63.5076 7.208 63.4991C7.20339 63.497 7.19898 63.495 7.19496 63.4933C7.19103 63.4916 7.18748 63.4901 7.18447 63.4889C7.14864 63.473 7.11204 63.4441 7.0773 63.4167L7.07727 63.4167C7.05143 63.3963 7.02662 63.3768 7.00391 63.3639C6.70761 63.1903 6.56641 63.0098 6.56641 63.0098C6.56641 63.0098 6.35344 62.0537 5.56177 61.4079C5.54162 61.3925 5.50994 61.3886 5.47854 61.3847C5.44861 61.3811 5.41893 61.3775 5.39973 61.3639C5.36761 61.3387 5.34175 61.3009 5.31736 61.2653C5.29251 61.2291 5.26918 61.1951 5.24232 61.1787L5.13815 61.1926L5.12657 61.1579L5.02241 61.0074L4.96685 61.0699L4.89907 61.0378C4.68426 60.9358 4.44316 60.8212 4.17749 60.7898L3.76544 60.8292C3.6034 60.8361 3.44831 60.8523 3.30016 60.8824C3.18905 60.9032 3.08025 60.9403 2.97377 60.9773C2.62885 61.0884 2.32792 61.2343 2.07097 61.4264C1.75847 61.6602 1.51773 61.9449 1.34411 62.181C0.677436 62.9542 0.448266 64.0838 0.448266 64.0838C0.30706 64.3223 0.258449 64.6996 0.258449 64.6996C-0.0100732 65.3593 -0.0772041 66.1579 0.0940947 66.8061C0.267708 67.4543 0.719102 67.7714 0.719102 67.7714L0.721418 67.695C0.638084 67.5191 0.45058 67.1186 0.45058 67.1186C0.411227 66.9473 0.376506 66.7297 0.360302 66.3431C0.342222 66.0077 0.423511 65.6739 0.463471 65.5099C0.469558 65.4849 0.474686 65.4638 0.478358 65.4473C0.508451 65.3246 0.561693 65.269 0.561693 65.269C0.619564 65.3848 0.77003 65.6024 0.77003 65.6024C0.730677 65.4334 0.631138 65.063 0.631138 65.063C0.952902 64.3848 1.15661 64.2436 1.15661 64.2436V64.2135C1.12189 64.1903 1.09642 64.1672 1.09642 64.1672C1.17281 64.1857 1.20985 64.1764 1.20985 64.1764C1.33717 64.0237 1.45522 63.9102 1.45522 63.9102C1.49689 63.9936 1.53624 64.0167 1.53624 64.0167L1.56402 63.9403L1.60338 63.9519L1.63115 63.8894C1.66588 63.8778 1.70754 63.9033 1.70754 63.9033L1.76773 63.8825C1.63347 63.9473 1.60338 64.0514 1.60338 64.0514L1.64041 64.1371L1.78393 64.2551L1.80477 64.2852C1.62884 64.5422 1.55245 64.7899 1.55245 64.7899C1.54782 64.8639 1.51541 64.9797 1.51541 64.9797C1.44365 65.1371 1.43671 65.3941 1.45754 65.5191C1.48069 65.6464 1.56865 65.739 1.56865 65.739C1.56865 65.739 1.63347 65.4936 1.67051 65.3778C1.69079 65.317 1.70924 65.2801 1.72932 65.24C1.7482 65.2022 1.76852 65.1616 1.79319 65.0954C1.83949 64.9612 1.91356 64.9056 1.91356 64.9056L1.93208 64.8871C1.93166 64.8989 1.9297 64.9175 1.92724 64.9408C1.9162 65.0455 1.89508 65.2458 1.95755 65.3593C1.9861 65.4105 2.00886 65.4569 2.0275 65.4948C2.06023 65.5615 2.08021 65.6022 2.09644 65.5978C2.12422 65.5839 2.17514 65.4612 2.17514 65.4612C2.17514 65.4612 2.19366 65.4959 2.21218 65.5353C2.2307 65.5769 2.20755 65.6186 2.20755 65.6186C2.01542 65.7251 2.0131 65.7644 2.0131 65.7644L2.0756 65.7621C2.2469 65.7552 2.09181 65.8153 2.09181 65.8153C1.98301 65.8478 1.98995 65.8917 1.98995 65.8917L2.06403 65.8941L2.05708 65.9311L2.11264 65.938L2.1219 65.9589L2.01542 66.026C2.04088 66.2505 2.16357 66.2436 2.36033 66.1857C2.55941 66.1325 2.73997 66.0723 2.73997 66.0723L2.73071 66.1047C2.73071 66.1047 3.1821 65.9959 3.31636 65.9658C3.44831 65.9334 3.54785 66.0399 3.54785 66.0399C3.50155 66.0792 3.51081 66.1487 3.51081 66.1487C3.42516 66.1718 3.41822 66.276 3.41822 66.276C3.41822 66.276 3.37423 66.2992 3.40664 66.4265C3.43905 66.5538 3.58025 66.7343 3.58025 66.7343C3.69831 66.7436 3.73766 66.8223 3.70063 66.9427C3.66359 67.0607 3.73303 67.1881 3.946 67.2158C4.16128 67.2459 4.16128 67.3339 4.16128 67.3339C4.23999 67.4635 4.1798 67.5816 4.1798 67.5816C4.06174 67.7228 4.30712 67.8617 4.30712 67.8617C4.42749 67.9913 4.34647 68.1279 4.34647 68.1279L4.31406 68.0839L4.30943 68.1487L4.26313 68.0746L4.25851 68.1418L4.1798 68.1047C4.25156 68.2251 4.33027 68.276 4.33027 68.276V68.3385L4.35341 68.3686L4.34647 68.4196C4.37888 68.4728 4.33953 68.5006 4.33953 68.5006C4.44601 68.5677 4.3673 68.6858 4.3673 68.6858C4.52471 68.7853 4.61036 68.8918 4.61036 68.8918L4.58258 68.9497L4.71685 68.9612L4.81407 69.0284L4.8812 68.9797L4.93444 69.0353L4.95759 69.0978L4.98537 69.1233L4.98768 69.1788C5.02935 69.2228 4.99694 69.2598 4.99694 69.2598C5.11731 69.3015 5.06176 69.4335 5.06176 69.4335C5.08954 69.4844 5.11963 69.6163 5.11963 69.6163L5.27704 69.7182L5.38121 69.7668L5.42982 69.7737L5.3951 69.9288L5.45297 69.871L5.57102 70.0168C5.68908 70.246 5.89047 70.4636 5.99696 70.5284C6.10575 70.5978 6.02936 70.6673 6.02936 70.6673C6.18446 70.7622 6.27011 70.871 6.27011 70.871L6.24233 70.9288L6.37659 70.9381L6.47613 71.0076L6.54326 70.9589L6.61039 71.0446L6.67984 71.0376L6.66132 71.0955L6.80715 71.2529L6.89512 71.2599L6.85577 71.3293L6.95993 71.3594L6.94373 71.4265L7.07799 71.3895L7.1266 71.4566L7.24466 71.5446L7.35346 71.5909L7.40207 71.6025L7.49929 71.7182L7.55716 71.6603L7.67291 71.8085L7.74004 71.8733L7.67291 71.9242C7.71226 71.952 7.94606 72.0793 7.94606 72.0793L7.97384 72.1766L8.03402 72.2228V72.3525C8.03402 72.3525 8.06411 72.3525 8.17986 72.3316C8.2956 72.3108 8.39282 72.4011 8.39282 72.4011C8.33495 72.8386 8.44144 72.7923 8.44144 72.7923L8.55023 72.7483C8.70533 72.7483 8.747 72.6534 8.747 72.6534C8.75562 72.6953 8.80359 72.726 8.84833 72.7547C8.88764 72.7799 8.92445 72.8035 8.92987 72.8316C8.93913 72.8872 8.83496 72.9543 8.83496 72.9543L8.92987 72.996L8.98079 72.9659V73.0238L9.07802 72.9844C9.12663 73.2391 9.19376 73.1789 9.19376 73.1789C9.19376 73.1789 9.3095 73.1303 9.3396 73.084C9.36969 73.033 9.46691 73.1905 9.46691 73.1905L9.48543 73.2969C9.39747 73.5307 9.42756 73.8733 9.42756 73.8733C9.56182 74.2391 9.72386 74.3872 9.72386 74.3872C9.72386 74.3872 9.78173 74.9335 9.89053 75.1002C9.9947 75.2622 10.3697 76.422 10.4322 76.6187C10.497 76.8155 10.5757 77.0701 10.5757 77.0701C10.5757 77.0701 10.5364 77.1465 10.5665 77.1488C10.5989 77.1488 10.5896 77.2021 10.5896 77.2021C10.5627 77.2499 10.5705 77.2601 10.5801 77.2725C10.5853 77.2794 10.5911 77.2869 10.5919 77.3016C10.5942 77.341 10.6012 77.5516 10.5202 77.5609C10.4415 77.5701 10.4368 77.672 10.4368 77.672C10.3359 77.7225 10.3361 77.7473 10.3362 77.7684C10.3363 77.7734 10.3363 77.7782 10.335 77.7831C10.3257 77.8039 10.2563 77.8526 10.2563 77.8526L10.254 77.885C10.254 77.885 10.2007 77.9359 10.1729 77.9706C10.1428 78.0053 10.0294 78.0979 10.0294 78.0979L9.96924 78.135L9.90674 78.1859L9.85812 78.2137L9.81183 78.2345L9.7609 78.2507L9.72618 78.2808L9.70071 78.2947C9.5271 78.3225 9.43682 78.4313 9.37895 78.5632C9.32108 78.6998 9.37895 78.8364 9.45071 78.7091C9.52015 78.5887 9.62895 78.5887 9.62895 78.5887C9.62895 78.5887 9.61738 78.7114 9.80025 78.7276C9.9785 78.7391 10.0641 78.6697 10.0919 78.6466C10.122 78.6257 10.1567 78.5447 10.1567 78.5447C10.1729 78.5169 10.2401 78.503 10.2401 78.503C10.271 78.4758 10.2948 78.4524 10.3169 78.4306L10.317 78.4305C10.3493 78.3986 10.378 78.3703 10.4206 78.3387C10.4878 78.2854 10.504 78.297 10.504 78.297C10.504 78.297 10.5202 78.4012 10.4854 78.4845C10.4484 78.5632 10.2956 78.6975 10.2956 78.6975C10.1382 78.7507 10.0202 78.8178 9.99007 78.8364C9.95998 78.8503 9.86738 78.9521 9.86738 78.9521L9.86507 78.9822C9.75627 79.0493 9.56182 79.2392 9.53867 79.3873C9.51321 79.5378 9.63358 79.4313 9.6984 79.3642C9.76553 79.2924 9.8234 79.2484 9.8234 79.2484H9.86507C9.89979 79.3179 10.1151 79.3503 10.2146 79.2484C10.3059 79.1509 10.3768 79.1445 10.4355 79.1392L10.4554 79.1373C10.462 79.1363 10.4689 79.1356 10.4761 79.1348C10.5356 79.1283 10.611 79.1201 10.7123 78.9567C10.828 78.7785 10.9646 78.7553 11.0642 78.7415C11.1614 78.7276 11.2748 78.8063 11.2748 78.8063L11.247 78.8248C11.0595 78.8641 10.9461 79.0354 10.9137 79.1697C10.8836 79.2947 10.9507 79.3364 10.9878 79.2554C11.0225 79.172 11.1359 79.1165 11.1591 79.1142C11.1799 79.1095 11.1868 79.1419 11.1868 79.1419C11.2123 79.2554 11.3628 79.2831 11.4901 79.253C11.6097 79.2216 11.6475 79.1578 11.6708 79.1185L11.6776 79.1072C11.6984 79.0702 11.7216 79.0632 11.7216 79.0632C11.7216 79.0632 11.7193 79.1651 11.71 79.2067C11.7007 79.2484 11.5919 79.3526 11.5919 79.3526C11.4878 79.3989 11.4831 79.4313 11.4831 79.4313C11.3073 79.453 11.2714 79.4849 11.2517 79.5024C11.2483 79.5054 11.2454 79.508 11.2424 79.51C11.2216 79.5239 11.1892 79.5517 11.1892 79.5517C11.0294 79.6003 10.9044 79.7438 10.8466 79.8202C10.7887 79.8966 10.7077 80.0864 10.7841 80.0331C10.8859 79.9591 11.0387 79.8549 11.0387 79.8549C11.0729 79.8308 11.0801 79.8449 11.0913 79.8672C11.1006 79.8856 11.1127 79.9095 11.1452 79.922C11.2563 79.9637 11.4484 79.9035 11.4484 79.9035C11.4855 79.841 11.5341 79.8341 11.5341 79.8341C11.7563 79.8341 11.835 79.7299 11.835 79.7299H11.9646L12.0734 79.6581C12.2864 79.6026 12.2262 79.5216 12.2262 79.5216C12.2957 79.5169 12.8559 79.5146 12.9369 79.5262C13.0179 79.5378 13.2401 79.6026 13.2401 79.6026L13.5873 79.6165C13.5873 79.6165 13.9068 79.679 13.9878 79.6396C14.1499 79.5655 14.2563 79.6026 14.3536 79.6489C14.4508 79.6998 14.7262 79.6952 14.7563 79.6327C14.7864 79.5679 14.8374 79.5308 14.8374 79.5308C14.9032 79.5405 14.9574 79.5784 15.0097 79.6149C15.0696 79.6567 15.1269 79.6967 15.1962 79.6905C15.3281 79.679 15.1823 79.5308 15.0133 79.3919C14.842 79.2554 14.6128 79.2345 14.6128 79.2345L14.6059 79.2183C14.6369 79.2089 14.6466 79.2121 14.6618 79.2172C14.6841 79.2247 14.7185 79.2362 14.8489 79.2183C15.0712 79.1882 15.0249 79.1026 15.0249 79.1026C15.1036 79.0308 15.2378 79.0401 15.4045 79.0864C15.5735 79.1396 15.5457 79.0609 15.3628 78.9058C15.18 78.753 14.886 78.8364 14.886 78.8364L14.8374 78.8016H14.71L14.6383 78.7716C14.6057 78.7761 14.5618 78.785 14.5111 78.7952L14.5111 78.7952C14.3317 78.8315 14.0671 78.8849 13.9137 78.8271C13.7193 78.7577 13.6128 78.8016 13.6128 78.8016L13.4716 78.7183C13.5503 78.7299 13.592 78.6466 13.592 78.6466C13.7378 78.7253 13.8674 78.6396 13.8674 78.6396C13.8674 78.6396 13.8674 78.679 14.0549 78.6766C14.2471 78.6697 14.2749 78.4984 14.2749 78.4984C14.3327 78.459 14.4693 78.4845 14.4693 78.4845C14.7378 78.6118 14.6383 78.459 14.6383 78.459C14.4508 78.1697 14.1267 78.2808 14.1267 78.2808C13.9855 78.2021 13.9693 78.26 13.9693 78.26C13.7262 78.2391 13.592 78.2947 13.592 78.2947C13.5481 78.2947 13.5039 78.2936 13.4592 78.2925C13.3458 78.2896 13.2294 78.2867 13.1082 78.3016C12.9554 78.3225 12.6637 78.2669 12.6637 78.2669C12.5741 78.1086 12.4835 77.7208 12.4137 77.4221L12.4137 77.422C12.3753 77.2579 12.3433 77.1207 12.3211 77.0632C12.2563 76.9012 12.0526 75.8965 12.0526 75.8965L11.9531 75.2622C12.0181 75.1882 12.0201 75.1468 12.0307 74.9249L12.0318 74.9034C12.0387 74.7853 12.0752 74.7187 12.1178 74.6411C12.1603 74.5636 12.2089 74.4751 12.2401 74.3132C12.2887 74.0628 12.5672 73.7466 12.7462 73.5433C12.7972 73.4853 12.8402 73.4366 12.8674 73.4011C12.9855 73.2391 13.1776 72.8756 13.1776 72.8756C13.254 72.9821 13.3026 72.9358 13.3651 72.8641C13.4037 72.8196 13.4147 72.7428 13.4237 72.68C13.4288 72.6447 13.4332 72.6139 13.4415 72.5955C13.467 72.5446 13.4832 72.4474 13.4832 72.4474L13.4878 72.2691C13.5272 72.1164 13.6105 71.9427 13.6105 71.9427L13.6452 71.8409L13.6614 71.7853C13.6614 71.7853 13.6406 71.7761 13.7795 71.5539C13.9207 71.3316 14.2818 71.0816 14.2818 71.0816L14.1568 71.2298C14.2309 71.1835 14.4531 71.1001 14.4531 71.1001L14.5225 71.0423L14.4901 71.1372C14.7795 70.8108 14.8374 70.9242 14.8374 70.9242L14.8466 70.8038C14.8744 70.746 14.9207 70.8548 14.9207 70.8548C15.0364 70.7413 15.129 70.6395 15.129 70.6395L15.1383 70.7645L15.1892 70.7761C15.2054 70.6835 15.2679 70.6302 15.2679 70.6302C15.298 70.7066 15.2563 70.8154 15.2563 70.8154L15.3026 70.7344L15.3119 70.7599C15.3628 70.7159 15.3906 70.6001 15.3906 70.6001L15.4462 70.6048C15.4462 70.6048 15.5619 70.452 15.548 70.3432C15.5388 70.2321 15.6036 70.1117 15.6036 70.1117C15.6152 70.2066 15.6846 70.239 15.6846 70.239V70.0515L15.7332 70.0793C15.7239 69.8872 15.7564 69.6811 15.7564 69.6811C16.0064 69.4427 16.7147 68.8756 16.7147 68.8756C16.8082 68.804 16.8931 68.7134 16.9874 68.6127L16.9875 68.6127C17.0823 68.5115 17.1866 68.4001 17.3189 68.2876C17.5851 68.0631 17.7888 67.9103 17.7888 67.9103L17.7772 67.8478L17.8374 67.8246C18.0596 67.5145 18.2656 67.1371 18.3559 66.8316C18.4485 66.5237 18.6082 65.9959 18.6082 65.9959L18.5874 65.9311C18.6524 65.922 18.651 65.8706 18.6495 65.8178C18.6484 65.7766 18.6472 65.7345 18.6777 65.7112C18.7518 65.6603 18.7402 65.4751 18.7402 65.4751C18.8351 65.2945 18.8189 65.1464 18.8189 65.1464C18.8606 65.0862 18.8814 64.9264 18.8791 64.8292C18.8761 64.7697 18.8942 64.6796 18.932 64.4906L18.9321 64.4905C18.9531 64.3855 18.9803 64.25 19.0133 64.0723C19.089 63.6747 18.971 63.2581 18.8618 62.8723C18.8139 62.7032 18.7677 62.5401 18.7402 62.3871C18.589 62.0071 18.4053 61.7075 18.2624 61.4742C18.2303 61.4218 18.2002 61.3727 18.1731 61.3269C18.0874 61.1857 18.1777 61.1486 18.1777 61.1486L18.4971 61.0769L18.9948 60.9194C18.9948 60.9194 19.1129 60.8384 19.1592 60.7667C19.2032 60.6972 19.2425 60.6787 19.2425 60.6787C19.4069 60.6486 19.3837 60.5143 19.3837 60.5143C19.562 60.3292 19.5018 59.9819 19.5018 59.9819C19.5018 59.9819 19.5735 59.8616 19.4601 59.4912C19.3421 59.1185 19.1893 59.0953 19.1893 59.0953C19.1893 59.0953 19.1962 59.0838 19.1569 59.0097C19.1175 58.9403 19.0573 58.9426 19.0573 58.9426C19.0715 58.9046 19.0944 58.8861 19.1215 58.8642C19.134 58.854 19.1475 58.8431 19.1615 58.8291C19.2008 58.7852 19.2402 58.799 19.2402 58.799C19.2617 58.8008 19.2799 58.8025 19.2965 58.8041L19.2966 58.8041C19.3461 58.8089 19.3821 58.8124 19.4532 58.8106C19.5458 58.806 19.5967 58.7967 19.643 58.769C19.6598 58.7613 19.6811 58.766 19.7008 58.7704C19.7407 58.7792 19.7735 58.7864 19.7472 58.6856ZM11.4531 77.3572C11.4272 77.2662 11.4013 77.2066 11.3716 77.138C11.3347 77.053 11.2918 76.9541 11.2355 76.7646C11.1313 76.4197 10.7864 75.0284 10.7864 75.0284L10.8442 74.9845C10.9021 75.1673 11.0989 75.4405 11.0989 75.4405C11.2563 75.8317 11.3952 76.4636 11.4855 76.8965C11.5781 77.334 11.6359 77.5632 11.6359 77.5632C11.5318 77.3919 11.4531 77.3572 11.4531 77.3572Z" fill="white"/>
</svg>
